<svg width="128" height="128" viewBox="0 0 128 128" fill="none" xmlns="http://www.w3.org/2000/svg">
<path d="M87.3996 92.1209L86.6666 92.4903V93.3115V106.667C86.6666 110.535 84.4473 114.17 80.5923 116.891C76.7409 119.61 71.3502 121.333 65.3334 121.333C59.3164 121.333 53.9259 119.61 50.0743 116.891C46.2196 114.17 44 110.535 44 106.667V93.3115V92.4903L43.267 92.1209C27.8442 84.3449 17.3333 68.6885 17.3333 50.6666C17.3333 24.9275 38.7892 4 65.3334 4C91.8777 4 113.333 24.9275 113.333 50.6666C113.333 68.6885 102.822 84.3449 87.3996 92.1209ZM85.3334 81.3334C93.4336 81.3334 100 74.767 100 66.6666C100 58.5664 93.4336 52 85.3334 52C77.233 52 70.6666 58.5664 70.6666 66.6666C70.6666 74.767 77.233 81.3334 85.3334 81.3334ZM45.3334 81.3334C53.4336 81.3334 60 74.767 60 66.6666C60 58.5664 53.4336 52 45.3334 52C37.233 52 30.6666 58.5664 30.6666 66.6666C30.6666 74.767 37.233 81.3334 45.3334 81.3334Z" fill="white" stroke="white"/>
</svg>
